<svg width="612" height="612" viewBox="0 0 612 612" fill="none" xmlns="http://www.w3.org/2000/svg">
<path fill-rule="evenodd" clip-rule="evenodd" d="M430.485 55.1593C432.886 55.1783 435.274 55.4942 437.597 56.1C440.633 52.5361 444.528 49.8056 448.913 48.1666C453.956 46.267 459.435 45.8366 464.712 46.9256C470.481 48.0777 475.681 51.1716 479.445 55.692C479.774 56.0716 480.091 56.4683 480.386 56.8763C481.974 59.0119 483.222 61.3802 484.086 63.8973L485.69 62.2936C489.033 58.9503 491.073 56.7743 493.187 54.5246C507.167 39.6666 522.308 23.5336 541.801 23.5336C552.989 23.4649 563.849 27.3073 572.503 34.3966C582.879 42.8966 588.602 55.4143 588.602 65.2743C588.602 89.4823 584.222 93.738 570.061 107.497L559.521 118.02C563.936 118.509 568.208 119.879 572.084 122.049C577.142 124.849 581.352 128.959 584.273 133.949C587.118 138.822 588.613 144.365 588.602 150.008C588.602 165.268 577.184 175.723 568.95 183.266C568.599 183.583 568.276 183.883 566.281 185.872L507.263 244.908C512.318 245.043 517.241 246.552 521.503 249.274C525.765 251.995 529.205 255.826 531.454 260.355C533.161 263.804 534.091 267.586 534.18 271.433C534.305 275.774 533.291 280.072 531.239 283.9C529.569 287.015 527.281 289.756 524.515 291.955C521.749 294.154 518.562 295.765 515.151 296.69C515.208 297.54 515.236 298.39 515.236 299.285C515.236 313.712 504.22 323.561 496.236 330.69C495.618 331.256 495.068 331.738 493.55 333.251L407.637 419.169C409.051 420.414 410.269 421.864 411.253 423.47C414.038 425.162 416.34 427.543 417.937 430.384C419.534 433.225 420.372 436.429 420.37 439.688V443.485C420.367 446.967 419.406 450.381 417.592 453.354C415.778 456.326 413.181 458.742 410.085 460.337C408.303 462.601 406.204 464.595 403.852 466.259L403.744 466.344C399.951 469.12 395.261 470.386 390.586 469.897C388.813 475.201 384.835 480.511 376.913 485.939C375.344 487.023 373.711 488.011 372.022 488.897C370.946 490.648 369.444 493.079 367.081 496.831C352.45 520.064 329.681 541.178 303.116 556.053C277.995 570.118 249.282 578.833 220.518 578.833V578.759H216.903C208.579 578.759 201.11 578.799 193.188 577.909C191.365 579.688 189.374 581.285 187.244 582.681C181.538 586.438 174.86 588.447 168.028 588.461C161.97 588.476 156.001 586.999 150.648 584.16C144.921 581.125 140.049 576.697 136.482 571.285C132.787 565.618 131.382 562.309 130.86 558.529C127.409 556.733 123.856 554.676 120.371 552.506C110.064 546.085 99.4048 538.073 94.4691 533.352C88.0884 527.204 82.4218 521.6 76.8514 515.219C70.8414 508.378 65.4324 501.031 60.6844 493.261C52.8246 480.604 46.5283 467.041 41.9334 452.869C37.4545 438.7 34.6456 424.056 33.5638 409.235L33.0254 408.669C29.7113 405.147 27.1518 400.985 25.504 396.438C23.8562 391.891 23.1549 387.056 23.4431 382.228C23.9361 372.028 28.7358 362.174 35.0144 356.161C36.285 354.934 37.6327 353.789 39.0491 352.733C40.3596 347.259 41.954 341.857 43.8261 336.549C45.7358 331.098 47.8664 325.941 50.2011 320.682C56.1908 307.247 65.5011 293.188 76.1828 280.551C87.0174 267.761 99.6201 256.088 111.985 247.684C127.166 237.382 139.95 231.523 150.614 227.715L149.861 226.99C144.681 221.81 142.09 215.126 142.086 206.935C142.086 197.523 145.288 194.044 149.249 189.822C151.22 186.978 153.931 184.726 157.089 183.312C160.247 181.898 163.732 181.374 167.167 181.798L176.953 183.033C181.219 183.482 185.207 185.362 188.266 188.368C191.326 191.374 193.277 195.328 193.8 199.586L194.253 203.212L293.726 103.74C285.09 100.708 282.2 96.033 280.5 90.6213C273.071 88.468 267.127 84.7676 265.591 70.8276C263.738 53.9976 269.949 49.5493 278.891 46.9256C279.752 40.0633 283.883 35.3316 299.721 31.6256C303.463 30.7567 307.381 31.0471 310.954 32.458C314.527 33.869 317.586 36.3338 319.725 39.525C321.214 41.7281 322.52 44.0498 323.629 46.4666C330.491 48.2743 336.203 50.9546 338.425 59.7663C347.072 52.8133 355.991 47.566 363.449 47.566C372.43 47.566 380.358 50.6033 386.302 56.0093C389.271 58.6881 391.68 61.9278 393.391 65.5419C395.101 69.1559 396.08 73.0727 396.27 77.0666L397.783 75.5536C399.268 74.069 399.67 73.6156 400.146 73.0886C406.98 65.4556 416.188 55.1593 430.485 55.1593Z" fill="white"/>
<path fill-rule="evenodd" clip-rule="evenodd" d="M424.768 262.735L546.499 140.998C547.722 139.735 549.184 138.728 550.799 138.036C552.415 137.344 554.153 136.98 555.91 136.965C557.668 136.951 559.411 137.287 561.038 137.953C562.665 138.619 564.143 139.603 565.386 140.845C566.629 142.088 567.612 143.566 568.278 145.193C568.944 146.82 569.28 148.563 569.266 150.321C569.251 152.078 568.888 153.816 568.195 155.432C567.503 157.047 566.496 158.509 565.233 159.732L422.892 302.096C420.491 304.499 419.105 307.733 419.02 311.13C418.935 314.526 420.159 317.825 422.437 320.345C424.716 322.865 427.875 324.414 431.263 324.67C434.651 324.927 438.008 323.873 440.64 321.725L473.042 289.323C475.54 286.905 478.888 285.565 482.365 285.593C485.841 285.621 489.168 287.015 491.626 289.473C494.084 291.932 495.478 295.258 495.506 298.734C495.534 302.211 494.194 305.559 491.776 308.057L374.881 424.952C373.556 432.727 371.665 440.414 369.212 447.95C370.872 450.172 371.921 452.791 372.256 455.545C372.591 458.298 372.199 461.092 371.119 463.647C370.04 466.203 368.31 468.431 366.103 470.111C363.895 471.791 361.286 472.864 358.536 473.223C345.902 497.15 327.495 517.545 304.986 532.559C282.476 547.573 256.575 556.731 229.63 559.204C224.719 559.646 219.808 559.867 214.897 559.867C209.461 559.867 204.036 559.596 198.622 559.056C194.089 558.597 189.516 557.923 185.022 557.107H185.005C183.418 561.508 180.199 565.13 176.015 567.223C171.831 569.316 167.003 569.72 162.529 568.351C158.055 566.982 154.28 563.945 151.984 559.868C149.688 555.792 149.047 550.989 150.195 546.454C123.427 534.797 100.295 516.143 83.2316 492.453C66.1679 468.763 55.803 440.912 53.2271 411.831C52.8909 407.996 52.6906 404.152 52.6264 400.299C49.3921 398.508 46.7481 395.816 45.0165 392.55C43.285 389.284 42.5405 385.584 42.8738 381.903C43.2071 378.221 44.6037 374.715 46.8937 371.813C49.1837 368.911 52.2681 366.737 55.7714 365.557C63.8171 325.685 86.5343 290.286 119.429 266.361C139.807 251.54 163.171 241.791 187.609 237.618L354.654 70.5727C355.877 69.3098 357.339 68.3028 358.954 67.6105C360.57 66.9182 362.308 66.5543 364.065 66.5401C365.823 66.5259 367.566 66.8617 369.193 67.5278C370.82 68.194 372.298 69.1772 373.541 70.4201C374.784 71.6631 375.767 73.141 376.433 74.7678C377.099 76.3945 377.435 78.1376 377.421 79.8954C377.406 81.6532 377.043 83.3906 376.35 85.0063C375.658 86.6221 374.651 88.0839 373.388 89.3067L276.607 186.088C274.189 188.585 272.849 191.934 272.877 195.41C272.905 198.887 274.299 202.213 276.757 204.672C279.216 207.13 282.542 208.524 286.018 208.552C289.495 208.58 292.843 207.24 295.341 204.822L421.22 78.9423C423.718 76.524 427.066 75.1843 430.543 75.2124C434.02 75.2405 437.346 76.634 439.804 79.0924C442.263 81.5508 443.656 84.8771 443.684 88.3537C443.712 91.8302 442.373 95.1786 439.954 97.6763L370.113 167.512C367.628 169.997 366.231 173.366 366.231 176.88C366.23 178.62 366.573 180.343 367.238 181.95C367.904 183.558 368.88 185.019 370.11 186.249C371.34 187.48 372.8 188.456 374.408 189.122C376.015 189.788 377.738 190.131 379.478 190.131C381.218 190.131 382.94 189.789 384.548 189.123C386.156 188.458 387.616 187.482 388.847 186.252L524.478 50.6204C526.939 48.1602 529.859 46.2086 533.074 44.8772C536.288 43.5458 539.733 42.8605 543.212 42.8605C546.692 42.8605 550.137 43.5458 553.351 44.8772C556.566 46.2086 559.486 48.1602 561.946 50.6204C564.407 53.0805 566.358 56.0012 567.69 59.2156C569.021 62.43 569.706 65.8751 569.706 69.3543C569.706 72.8336 569.021 76.2787 567.69 79.4931C566.358 82.7075 564.407 85.6282 561.946 88.0884L406.034 244.001C404.771 245.224 403.764 246.686 403.072 248.301C402.379 249.917 402.015 251.655 402.001 253.412C401.987 255.17 402.323 256.913 402.989 258.54C403.655 260.167 404.638 261.645 405.881 262.888C407.124 264.131 408.602 265.114 410.229 265.78C411.856 266.446 413.599 266.782 415.356 266.768C417.114 266.753 418.852 266.389 420.467 265.697C422.083 265.005 423.545 263.998 424.768 262.735ZM164.51 260.717C145.28 267.784 127.242 279.036 111.803 294.474C54.8647 351.413 54.8647 443.734 111.803 500.667C168.742 557.6 261.058 557.606 317.996 500.667C333.384 485.279 344.613 467.308 351.684 448.149L290.609 509.224C288.125 511.709 284.755 513.105 281.242 513.106C279.502 513.106 277.779 512.763 276.171 512.098C274.564 511.432 273.103 510.457 271.873 509.227C270.642 507.996 269.666 506.536 269 504.929C268.334 503.321 267.991 501.599 267.991 499.859C267.99 498.119 268.333 496.396 268.998 494.788C269.664 493.181 270.64 491.72 271.87 490.49L324.847 437.523L306.147 418.823L357.556 367.374C357.142 365.407 356.687 363.448 356.191 361.496C352.028 362.487 347.498 363.036 345.344 360.882C342.87 358.392 341.481 355.025 341.481 351.515C341.481 348.005 342.87 344.637 345.344 342.148L291.017 396.474L272.283 377.74L318.183 331.84L280.721 294.366L240.153 334.934L221.414 316.2L238.788 298.843C240.986 296.644 238.835 297.261 235.245 298.29C230.425 299.671 223.012 301.795 220.059 298.843C217.582 296.354 216.191 292.985 216.191 289.473C216.191 285.961 217.582 282.592 220.059 280.103L239.972 260.191L232.626 252.845C225.406 251.966 218.131 251.626 210.869 251.825L172.221 290.473C170.999 291.736 169.537 292.743 167.921 293.436C166.305 294.128 164.568 294.492 162.81 294.506C161.052 294.52 159.309 294.184 157.682 293.518C156.056 292.852 154.578 291.869 153.335 290.626C152.092 289.383 151.109 287.905 150.443 286.278C149.776 284.651 149.441 282.908 149.455 281.151C149.469 279.393 149.833 277.655 150.525 276.04C151.218 274.424 152.224 272.962 153.487 271.739L164.51 260.717Z" fill="#6262B3"/>
<path fill-rule="evenodd" clip-rule="evenodd" d="M111.803 294.474C168.742 237.535 261.058 237.535 317.996 294.474C374.935 351.413 374.935 443.728 317.996 500.667C261.058 557.606 168.742 557.6 111.803 500.667C54.8647 443.734 54.8647 351.413 111.803 294.474Z" fill="#88AEFF"/>
<path fill-rule="evenodd" clip-rule="evenodd" d="M117.3 372.3C117.578 372.238 117.867 372.17 118.133 372.113C117.867 372.175 117.595 372.243 117.3 372.3ZM104.754 377.185C108.618 374.985 112.778 373.353 117.107 372.34C112.785 373.36 108.631 374.994 104.771 377.19L104.754 377.185ZM94.8658 384.767C97.334 382.301 100.069 380.117 103.02 378.256C105.273 381.726 108.454 384.495 112.202 386.248C115.949 388.001 120.113 388.669 124.221 388.175C128.328 387.681 132.215 386.045 135.44 383.454C138.666 380.862 141.099 377.418 142.466 373.513C152.073 376.709 160.376 382.952 166.115 391.295C171.853 399.637 174.714 409.623 174.263 419.738C173.813 429.854 170.075 439.546 163.618 447.345C157.16 455.144 148.335 460.624 138.482 462.954C128.628 465.284 118.283 464.336 109.017 460.254C99.7508 456.173 92.0685 449.18 87.1357 440.338C82.203 431.495 80.2889 421.285 81.6839 411.256C83.079 401.228 87.7069 391.927 94.8658 384.767Z" fill="#B7CAFF"/>
<path fill-rule="evenodd" clip-rule="evenodd" d="M139.695 272.623C229.443 287.679 360.315 442.657 255.742 537.545C279.276 530.703 300.694 518.012 317.996 500.655C374.941 443.717 374.941 351.401 317.996 294.462C269.631 246.097 195.749 238.827 139.695 272.623Z" fill="#7599E7"/>
<path fill-rule="evenodd" clip-rule="evenodd" d="M225.823 280.988C219.113 283.254 213.696 287.958 211.146 294.559L211.14 294.593C208.449 301.575 209.429 309.225 213.197 316.025C217.231 323.058 223.589 328.468 231.178 331.325C238.89 334.305 246.835 334.441 253.442 332.175C260.151 329.908 265.574 325.182 268.119 318.575C270.816 311.605 269.83 303.943 266.062 297.143C262.03 290.108 255.672 284.697 248.081 281.843C240.635 278.965 232.951 278.778 226.469 280.806C226.25 280.855 226.034 280.915 225.823 280.988ZM224.474 302.034C224.559 301.858 224.633 301.665 224.701 301.467C226.1 298.203 228.934 295.8 232.555 294.61C232.701 294.562 232.845 294.505 232.985 294.44C237.004 293.265 241.299 293.464 245.191 295.007C248.842 296.325 251.92 298.874 253.895 302.215C254.698 303.586 255.185 305.119 255.321 306.702C255.457 308.285 255.239 309.878 254.683 311.367C253.363 314.784 250.41 317.271 246.704 318.524C242.572 319.859 238.105 319.715 234.068 318.116C230.417 316.794 227.34 314.243 225.364 310.902C224.591 309.573 224.111 308.094 223.958 306.564C223.805 305.034 223.98 303.49 224.474 302.034Z" fill="#6262B3"/>
<path fill-rule="evenodd" clip-rule="evenodd" d="M110.177 329.681C102.527 331.59 96.8153 337.354 93.7439 345.134V345.145C91.0069 352.087 90.3949 360.746 92.571 369.472C94.7696 378.205 99.303 385.56 104.97 390.382C111.333 395.822 119.114 398.225 126.803 396.31C134.448 394.4 140.165 388.637 143.237 380.856C145.974 373.915 146.58 365.256 144.41 356.524C142.211 347.786 137.678 340.436 132.011 335.608C125.647 330.174 117.867 327.771 110.177 329.681ZM113.56 344.845C113.828 344.795 114.093 344.731 114.354 344.652V344.641C116.734 344.222 119.431 345.298 121.913 347.423C125.234 350.279 128.005 354.801 129.376 360.315C130.747 365.829 130.441 371.093 128.849 375.145C127.648 378.182 125.755 380.398 123.42 381.157C123.16 381.214 122.893 381.276 122.627 381.355C120.253 381.775 117.555 380.692 115.068 378.573C111.73 375.717 108.993 371.212 107.616 365.693C106.239 360.173 106.539 354.915 108.143 350.863C109.339 347.826 111.231 345.604 113.56 344.845Z" fill="#6262B3"/>
<path d="M320.167 407.683C318.149 408.081 316.056 407.662 314.348 406.516C312.639 405.371 311.456 403.595 311.058 401.577C310.659 399.559 311.079 397.466 312.224 395.758C313.369 394.05 315.146 392.866 317.164 392.468C318.207 392.253 319.174 391.762 319.963 391.046C320.752 390.331 321.335 389.417 321.652 388.399C321.962 387.381 321.993 386.298 321.741 385.263C321.489 384.229 320.964 383.281 320.22 382.519C319.476 381.757 318.541 381.209 317.513 380.933C316.485 380.656 315.401 380.662 314.376 380.948C312.417 381.451 310.34 381.17 308.586 380.164C306.832 379.158 305.539 377.507 304.985 375.563C304.43 373.618 304.656 371.534 305.615 369.754C306.575 367.974 308.191 366.639 310.12 366.033C312.901 365.232 315.816 365.003 318.689 365.359C321.561 365.715 324.332 366.649 326.834 368.105C329.336 369.56 331.517 371.507 333.246 373.828C334.976 376.15 336.217 378.797 336.896 381.611C337.575 384.424 337.677 387.346 337.196 390.201C336.715 393.055 335.661 395.782 334.098 398.219C332.535 400.655 330.495 402.749 328.101 404.376C325.706 406.002 323.008 407.127 320.167 407.683Z" fill="#6262B3"/>
<path fill-rule="evenodd" clip-rule="evenodd" d="M224.298 510.646C221.79 509.551 219.412 508.179 217.209 506.555C212.245 502.866 208.857 498.196 207.281 493.176C205.653 488.086 205.966 482.573 208.16 477.7C208.923 475.979 209.873 474.346 210.993 472.832C215.934 466.185 223.902 461.714 232.793 459.856C241.935 457.924 251.452 458.874 260.032 462.576C262.538 463.675 264.916 465.047 267.121 466.667C272.085 470.362 275.468 475.031 277.049 480.052C278.675 485.138 278.362 490.646 276.171 495.516C275.408 497.237 274.457 498.87 273.338 500.384C268.396 507.025 260.429 511.496 251.538 513.36C242.396 515.295 232.879 514.346 224.298 510.646ZM228.021 497.981C229.253 498.899 230.584 499.676 231.988 500.299C236.873 502.396 242.287 502.927 247.486 501.817C252.507 500.763 257.012 498.23 259.811 494.451C260.458 493.594 261.007 492.669 261.449 491.691C262.705 488.917 262.891 485.776 261.97 482.874C260.933 479.796 258.95 477.124 256.304 475.241C255.072 474.323 253.741 473.546 252.337 472.923C247.45 470.825 242.034 470.295 236.833 471.404C231.818 472.453 227.313 474.986 224.508 478.771C223.865 479.629 223.318 480.554 222.876 481.531C221.62 484.305 221.434 487.445 222.355 490.348C223.391 493.426 225.375 496.098 228.021 497.981Z" fill="#6262B3"/>
<path d="M111.288 435.297C112.163 434.746 113.14 434.377 114.16 434.209C115.18 434.041 116.223 434.078 117.229 434.319C118.234 434.559 119.182 434.998 120.015 435.609C120.849 436.22 121.553 436.992 122.084 437.879C122.616 438.765 122.966 439.749 123.112 440.772C123.259 441.796 123.2 442.838 122.938 443.839C122.677 444.839 122.219 445.777 121.59 446.598C120.962 447.419 120.175 448.106 119.278 448.619C118.138 449.315 117.228 450.331 116.661 451.54C116.095 452.75 115.897 454.099 116.093 455.421C116.289 456.742 116.87 457.976 117.763 458.969C118.655 459.963 119.821 460.671 121.114 461.006C121.971 461.225 122.863 461.272 123.739 461.144C124.614 461.015 125.456 460.714 126.214 460.258C127.984 459.267 130.071 459.006 132.03 459.532C133.989 460.058 135.665 461.328 136.7 463.073C137.736 464.817 138.048 466.897 137.571 468.869C137.094 470.84 135.865 472.548 134.147 473.626C129.064 476.659 122.985 477.548 117.246 476.099C111.508 474.649 106.58 470.979 103.547 465.897C100.514 460.814 99.6249 454.734 101.074 448.996C102.524 443.257 106.194 438.329 111.277 435.297H111.288Z" fill="#6262B3"/>
<path d="M309.502 75.8088C307.744 77.5618 306.719 79.918 306.635 82.3991C306.595 83.4898 306.133 84.5225 305.348 85.2799C304.562 86.0374 303.513 86.4606 302.422 86.4606C301.33 86.4606 300.281 86.0374 299.496 85.2799C298.71 84.5225 298.248 83.4898 298.208 82.3991C298.117 79.9184 297.091 77.5641 295.335 75.8088C293.58 74.0535 291.226 73.0271 288.745 72.9358C287.628 72.9358 286.558 72.4922 285.768 71.7026C284.978 70.913 284.535 69.8421 284.535 68.7255C284.535 67.6088 284.978 66.5379 285.768 65.7483C286.558 64.9587 287.628 64.5151 288.745 64.5151C291.226 64.4238 293.58 63.3975 295.335 61.6422C297.091 59.8869 298.117 57.5325 298.208 55.0518C298.248 53.9612 298.71 52.9285 299.496 52.171C300.281 51.4136 301.33 50.9904 302.422 50.9904C303.513 50.9904 304.562 51.4136 305.348 52.171C306.133 52.9285 306.595 53.9612 306.635 55.0518C306.723 57.5334 307.749 59.8892 309.505 61.6451C311.261 63.401 313.616 64.4265 316.098 64.5151C317.215 64.5151 318.286 64.9587 319.075 65.7483C319.865 66.5379 320.308 67.6088 320.308 68.7255C320.308 69.8421 319.865 70.913 319.075 71.7026C318.286 72.4922 317.215 72.9358 316.098 72.9358C313.615 73.0218 311.257 74.0489 309.502 75.8088Z" fill="#6262B3"/>
<path d="M396.026 445.185C395.175 446.03 394.678 447.17 394.638 448.369C394.611 448.89 394.385 449.379 394.007 449.738C393.629 450.096 393.128 450.296 392.607 450.296C392.086 450.296 391.585 450.096 391.207 449.738C390.829 449.379 390.603 448.89 390.575 448.369C390.531 447.17 390.036 446.032 389.187 445.184C388.339 444.336 387.201 443.84 386.002 443.796C385.463 443.796 384.945 443.582 384.564 443.2C384.182 442.819 383.968 442.302 383.968 441.762C383.968 441.222 384.182 440.705 384.564 440.323C384.945 439.942 385.463 439.728 386.002 439.728C387.201 439.685 388.338 439.191 389.187 438.343C390.035 437.496 390.531 436.359 390.575 435.16C390.603 434.64 390.829 434.15 391.207 433.792C391.585 433.433 392.086 433.233 392.607 433.233C393.128 433.233 393.629 433.433 394.007 433.792C394.385 434.15 394.611 434.64 394.638 435.16C394.682 436.359 395.178 437.496 396.026 438.343C396.875 439.191 398.013 439.685 399.211 439.728C399.751 439.728 400.268 439.942 400.65 440.323C401.031 440.705 401.245 441.222 401.245 441.762C401.245 442.302 401.031 442.819 400.65 443.2C400.268 443.582 399.751 443.796 399.211 443.796C398.012 443.839 396.874 444.335 396.026 445.185Z" fill="#6262B3"/>
<path d="M173.082 201.862C171.848 201.038 170.396 200.599 168.912 200.6C166.924 200.602 165.018 201.392 163.613 202.798C162.207 204.203 161.417 206.109 161.415 208.097C161.414 209.581 161.853 211.033 162.677 212.267C163.501 213.502 164.673 214.465 166.044 215.033C167.415 215.602 168.924 215.751 170.38 215.461C171.836 215.172 173.173 214.458 174.223 213.408C175.273 212.358 175.987 211.021 176.276 209.565C176.566 208.109 176.417 206.6 175.848 205.229C175.28 203.858 174.317 202.686 173.082 201.862Z" fill="#6262B3"/>
<path d="M507.167 264.401C508.651 264.4 510.102 264.839 511.337 265.663C512.571 266.486 513.534 267.658 514.102 269.029C514.671 270.399 514.82 271.908 514.532 273.364C514.243 274.82 513.529 276.157 512.48 277.207C511.431 278.257 510.094 278.972 508.638 279.262C507.183 279.552 505.674 279.403 504.303 278.836C502.931 278.268 501.759 277.306 500.935 276.072C500.11 274.839 499.67 273.388 499.67 271.904C499.67 269.915 500.459 268.007 501.865 266.6C503.271 265.194 505.178 264.402 507.167 264.401Z" fill="#6262B3"/>
<path d="M463.018 66.7475C461.785 65.9238 460.336 65.4841 458.853 65.4841C456.864 65.4841 454.957 66.2739 453.552 67.6799C452.146 69.0859 451.356 70.9927 451.356 72.9811C451.356 74.4638 451.795 75.9133 452.619 77.1462C453.443 78.3791 454.614 79.34 455.984 79.9074C457.354 80.4748 458.861 80.6233 460.315 80.334C461.77 80.0448 463.105 79.3307 464.154 78.2823C465.202 77.2338 465.916 75.8979 466.206 74.4437C466.495 72.9894 466.347 71.482 465.779 70.1121C465.212 68.7422 464.251 67.5713 463.018 66.7475Z" fill="#6262B3"/>
</svg>
